<?xml version="1.0" encoding="UTF-8" standalone="no"?><!DOCTYPE svg PUBLIC "-//W3C//DTD SVG 1.1//EN" "http://www.w3.org/Graphics/SVG/1.1/DTD/svg11.dtd"><svg width="100%" height="100%" viewBox="0 0 466 506" version="1.1" xmlns="http://www.w3.org/2000/svg" xmlns:xlink="http://www.w3.org/1999/xlink" xml:space="preserve" xmlns:serif="http://www.serif.com/" style="fill-rule:evenodd;clip-rule:evenodd;stroke-linejoin:round;stroke-miterlimit:1.41421;"><g><path d="M237.067,445.336c4.601,0 8.141,-1.151 10.619,-3.452c4.07,-4.07 6.194,-8.406 6.371,-13.008l0,-58.527l-99.842,0l0,58.262c0,4.601 1.681,8.539 5.044,11.813c3.363,3.275 7.345,4.912 11.947,4.912l3.186,0l0.265,2.655l-80.706,0l0,-2.655l3.452,0c4.601,0 8.539,-1.637 11.813,-4.912c3.275,-3.274 5,-7.212 5.177,-11.813l0,-147.076c-0.177,-4.601 -1.902,-8.539 -5.177,-11.813c-3.274,-3.275 -7.212,-4.912 -11.813,-4.912l-3.452,0l0,-2.655l80.706,0l-0.265,2.655l-3.186,0c-4.602,0 -8.584,1.637 -11.947,4.912c-3.363,3.274 -5.044,7.212 -5.044,11.813l0,58.293l99.842,0l0,-58.293c-0.177,-4.601 -1.902,-8.539 -5.177,-11.813c-3.274,-3.275 -7.212,-4.912 -11.813,-4.912l-3.452,0l0,-2.655l80.706,0l0,2.655l-3.451,0c-4.602,0 -8.584,1.637 -11.947,4.912c-3.363,3.274 -5.044,7.212 -5.044,11.813l0,147.076c0,4.601 1.681,8.539 5.044,11.813c3.363,3.275 7.345,4.912 11.947,4.912l3.451,0l0,2.655l-80.706,0l0,-2.655l3.452,0Z" style="fill:#fff;fill-rule:nonzero;"/><path d="M27.305,435.97l-0.01,-435.792c33.041,-0.031 66.106,-0.057 99.092,-0.051c20.434,0.01 41.457,-1.174 60.96,3.502c15.011,3.599 29.189,10.528 41.194,20.239c33.2,26.854 48.707,71.338 80.394,100.193c28.951,26.362 68.342,40.249 100.462,59.833c18.128,11.054 35.279,25.067 45.527,44.363c19.117,35.994 12.561,84.889 -15.682,112.25c-2.039,1.975 -4.175,3.848 -6.394,5.618c-20.796,16.589 -48.003,23.484 -73.69,25.665l-22.367,0.795l-15.987,-0.035l-0.001,-34.947c10.305,-0.014 10.22,-0.026 20.525,-0.041c0,0 3.501,-0.043 5.991,-0.135c3.26,-0.119 6.517,-0.317 9.766,-0.605c26.778,-2.372 55.786,-10.564 67.665,-35.076c5.208,-10.746 6.524,-23.086 5.478,-35.1c-1.323,-15.177 -8.922,-29.312 -20.692,-39.67c-20.055,-17.648 -45.656,-27.616 -69.954,-40.565c-24.85,-13.243 -48.667,-28.805 -67.631,-50.032c-19.004,-21.272 -32.362,-47.283 -49.996,-69.356c-10.933,-13.684 -25.158,-25.2 -43.098,-29.42c-10.429,-2.453 -21.23,-2.427 -32.125,-2.444c-28.14,-0.035 -56.28,-0.016 -84.42,0.004l-0.001,401.704c0,14.165 -2.956,26.833 -8.868,38.005c-5.912,11.172 -13.147,19.152 -21.704,23.94c-8.557,4.788 -17.114,7.182 -25.671,7.182c-2.023,0 -4.045,-0.099 -6.068,-0.299l0,-2.693c9.335,-4.988 16.22,-13.616 20.654,-25.885c4.434,-12.27 6.651,-25.985 6.651,-41.147Z" style="fill:#fff;fill-rule:nonzero;"/></g></svg>